<?xml version="1.0" standalone="no"?>
<!DOCTYPE svg PUBLIC "-//W3C//DTD SVG 20010904//EN"
 "http://www.w3.org/TR/2001/REC-SVG-20010904/DTD/svg10.dtd">
<svg version="1.0" xmlns="http://www.w3.org/2000/svg"
 width="100.000000pt" height="100.000000pt" viewBox="0 0 100.000000 100.000000"
 preserveAspectRatio="xMidYMid meet">

<g transform="translate(0.000000,100.000000) scale(0.100000,-0.100000)"
fill="#000000" stroke="none">
<path d="M450 896 c0 -50 2 -56 21 -56 18 0 20 5 17 52 -2 41 -7 54 -20 56
-15 3 -18 -5 -18 -52z"/>
<path d="M180 838 c0 -2 7 -28 15 -58 31 -116 27 -260 -11 -387 l-6 -23 131 0
131 0 0 -24 c0 -19 -4 -22 -22 -19 -13 2 -34 -3 -48 -10 -21 -11 -30 -11 -58
2 -30 14 -36 14 -66 -3 -20 -11 -48 -16 -72 -14 l-39 3 -3 48 c-4 58 -14 57
-59 -1 -71 -93 -47 -215 50 -251 47 -18 441 -14 512 5 33 8 76 14 96 13 25 -2
44 4 64 19 34 27 36 27 68 1 l27 -20 19 32 c42 70 38 123 -22 242 -36 73 -47
137 -24 137 8 0 17 -7 21 -15 3 -10 19 -15 46 -15 45 0 55 17 13 22 -14 2 -28
8 -30 14 -2 7 8 9 27 6 25 -3 30 -1 30 16 0 21 -38 32 -111 32 -72 0 -93 -74
-50 -173 26 -60 26 -79 3 -100 -23 -21 -90 -22 -116 -2 -24 18 -44 19 -76 1
-21 -11 -30 -10 -54 1 -15 8 -37 13 -47 10 -15 -4 -19 0 -19 19 0 24 1 24 100
24 117 0 119 1 146 115 20 85 14 214 -13 295 -17 53 -20 55 -56 58 -37 3 -38
3 -30 -25 11 -45 8 -232 -6 -305 -18 -94 -34 -87 -26 10 7 80 -7 235 -26 291
-10 28 -15 31 -51 31 -36 0 -39 -2 -32 -22 12 -38 8 -238 -5 -310 -19 -97 -35
-87 -27 15 7 81 -4 203 -24 278 -10 38 -12 39 -55 39 l-45 0 7 -103 c7 -123
-14 -297 -36 -297 -3 0 -7 69 -7 153 -1 100 -6 167 -16 197 l-14 45 -52 3
c-29 2 -52 2 -52 0z m128 -554 c29 -20 28 -50 -2 -69 -19 -13 -29 -14 -45 -5
-26 14 -29 65 -3 79 23 14 24 14 50 -5z m123 6 c29 -16 26 -67 -6 -82 -21 -9
-28 -8 -45 7 -24 22 -25 42 -3 67 19 21 27 22 54 8z m127 -6 c29 -20 28 -50
-2 -69 -19 -13 -29 -14 -45 -5 -26 14 -29 65 -3 79 23 14 24 14 50 -5z m123 6
c29 -16 26 -67 -6 -82 -21 -9 -28 -8 -45 7 -24 22 -25 42 -3 67 19 21 27 22
54 8z"/>
<path d="M270 250 c0 -5 7 -10 15 -10 8 0 15 5 15 10 0 6 -7 10 -15 10 -8 0
-15 -4 -15 -10z"/>
<path d="M395 260 c-4 -6 -3 -16 3 -22 6 -6 12 -6 17 2 4 6 3 16 -3 22 -6 6
-12 6 -17 -2z"/>
<path d="M520 250 c0 -5 7 -10 15 -10 8 0 15 5 15 10 0 6 -7 10 -15 10 -8 0
-15 -4 -15 -10z"/>
<path d="M645 260 c-4 -6 -3 -16 3 -22 6 -6 12 -6 17 2 4 6 3 16 -3 22 -6 6
-12 6 -17 -2z"/>
</g>
</svg>
